<mxfile host="app.diagrams.net" modified="2024-04-02T20:37:10.248Z" agent="Mozilla/5.0 (Windows NT 10.0; Win64; x64) AppleWebKit/537.36 (KHTML, like Gecko) Chrome/123.0.0.0 Safari/537.36" etag="h35Wh09zZeM72fK8q3NO" version="21.5.2" type="device">
  <diagram id="R2lEEEUBdFMjLlhIrx00" name="Page-1">
    <mxGraphModel dx="1195" dy="1743" grid="1" gridSize="10" guides="1" tooltips="1" connect="1" arrows="1" fold="1" page="1" pageScale="1" pageWidth="850" pageHeight="1100" math="0" shadow="0" extFonts="Permanent Marker^https://fonts.googleapis.com/css?family=Permanent+Marker">
      <root>
        <mxCell id="0" />
        <mxCell id="1" parent="0" />
        <mxCell id="2W6tL230I7aWUZj01j9L-4" style="edgeStyle=orthogonalEdgeStyle;rounded=0;orthogonalLoop=1;jettySize=auto;html=1;entryX=0;entryY=0.5;entryDx=0;entryDy=0;strokeColor=default;endArrow=classic;endFill=1;startArrow=classic;startFill=1;movable=0;resizable=0;rotatable=0;deletable=0;editable=0;locked=1;connectable=0;" edge="1" parent="1" source="2W6tL230I7aWUZj01j9L-1" target="2W6tL230I7aWUZj01j9L-2">
          <mxGeometry relative="1" as="geometry" />
        </mxCell>
        <mxCell id="2W6tL230I7aWUZj01j9L-5" value="1" style="edgeLabel;html=1;align=center;verticalAlign=middle;resizable=0;points=[];movable=0;rotatable=0;deletable=0;editable=0;locked=1;connectable=0;" vertex="1" connectable="0" parent="2W6tL230I7aWUZj01j9L-4">
          <mxGeometry x="-0.24" y="3" relative="1" as="geometry">
            <mxPoint as="offset" />
          </mxGeometry>
        </mxCell>
        <mxCell id="2W6tL230I7aWUZj01j9L-1" value="User (me)" style="ellipse;whiteSpace=wrap;html=1;aspect=fixed;movable=0;resizable=0;rotatable=0;deletable=0;editable=0;locked=1;connectable=0;" vertex="1" parent="1">
          <mxGeometry x="50" y="260" width="80" height="80" as="geometry" />
        </mxCell>
        <mxCell id="2W6tL230I7aWUZj01j9L-8" style="edgeStyle=orthogonalEdgeStyle;rounded=0;orthogonalLoop=1;jettySize=auto;html=1;entryX=0;entryY=0.5;entryDx=0;entryDy=0;movable=0;resizable=0;rotatable=0;deletable=0;editable=0;locked=1;connectable=0;" edge="1" parent="1" source="2W6tL230I7aWUZj01j9L-2" target="2W6tL230I7aWUZj01j9L-7">
          <mxGeometry relative="1" as="geometry" />
        </mxCell>
        <mxCell id="2W6tL230I7aWUZj01j9L-9" value="2" style="edgeLabel;html=1;align=center;verticalAlign=middle;resizable=0;points=[];movable=0;rotatable=0;deletable=0;editable=0;locked=1;connectable=0;" vertex="1" connectable="0" parent="2W6tL230I7aWUZj01j9L-8">
          <mxGeometry x="-0.2724" y="-2" relative="1" as="geometry">
            <mxPoint as="offset" />
          </mxGeometry>
        </mxCell>
        <mxCell id="2W6tL230I7aWUZj01j9L-11" style="edgeStyle=orthogonalEdgeStyle;rounded=0;orthogonalLoop=1;jettySize=auto;html=1;endArrow=classic;endFill=1;startArrow=classic;startFill=1;movable=0;resizable=0;rotatable=0;deletable=0;editable=0;locked=1;connectable=0;" edge="1" parent="1" source="2W6tL230I7aWUZj01j9L-2" target="2W6tL230I7aWUZj01j9L-10">
          <mxGeometry relative="1" as="geometry" />
        </mxCell>
        <mxCell id="2W6tL230I7aWUZj01j9L-2" value="Application" style="ellipse;whiteSpace=wrap;html=1;aspect=fixed;movable=0;resizable=0;rotatable=0;deletable=0;editable=0;locked=1;connectable=0;" vertex="1" parent="1">
          <mxGeometry x="180" y="260" width="80" height="80" as="geometry" />
        </mxCell>
        <mxCell id="2W6tL230I7aWUZj01j9L-3" value="" style="endArrow=none;dashed=1;html=1;dashPattern=1 3;strokeWidth=2;rounded=0;" edge="1" parent="1">
          <mxGeometry width="50" height="50" relative="1" as="geometry">
            <mxPoint x="320" y="770" as="sourcePoint" />
            <mxPoint x="320" as="targetPoint" />
          </mxGeometry>
        </mxCell>
        <mxCell id="2W6tL230I7aWUZj01j9L-6" value="User&lt;br&gt;" style="text;html=1;align=center;verticalAlign=middle;resizable=0;points=[];autosize=1;strokeColor=none;fillColor=none;movable=0;rotatable=0;deletable=0;editable=0;locked=1;connectable=0;" vertex="1" parent="1">
          <mxGeometry x="135" y="28" width="50" height="30" as="geometry" />
        </mxCell>
        <mxCell id="2W6tL230I7aWUZj01j9L-16" value="7" style="edgeStyle=orthogonalEdgeStyle;rounded=0;orthogonalLoop=1;jettySize=auto;html=1;entryX=0;entryY=0.5;entryDx=0;entryDy=0;startArrow=classic;startFill=1;movable=0;resizable=0;rotatable=0;deletable=0;editable=0;locked=1;connectable=0;" edge="1" parent="1" source="2W6tL230I7aWUZj01j9L-7" target="2W6tL230I7aWUZj01j9L-15">
          <mxGeometry relative="1" as="geometry" />
        </mxCell>
        <mxCell id="2W6tL230I7aWUZj01j9L-18" style="edgeStyle=orthogonalEdgeStyle;rounded=0;orthogonalLoop=1;jettySize=auto;html=1;startArrow=classic;startFill=1;movable=0;resizable=0;rotatable=0;deletable=0;editable=0;locked=1;connectable=0;" edge="1" parent="1" source="2W6tL230I7aWUZj01j9L-7" target="2W6tL230I7aWUZj01j9L-17">
          <mxGeometry relative="1" as="geometry" />
        </mxCell>
        <mxCell id="2W6tL230I7aWUZj01j9L-21" value="5" style="edgeLabel;html=1;align=center;verticalAlign=middle;resizable=0;points=[];movable=0;rotatable=0;deletable=0;editable=0;locked=1;connectable=0;" vertex="1" connectable="0" parent="2W6tL230I7aWUZj01j9L-18">
          <mxGeometry x="0.381" relative="1" as="geometry">
            <mxPoint as="offset" />
          </mxGeometry>
        </mxCell>
        <mxCell id="2W6tL230I7aWUZj01j9L-7" value="MQTT&lt;br&gt;Raspberry Pi" style="ellipse;whiteSpace=wrap;html=1;movable=0;resizable=0;rotatable=0;deletable=0;editable=0;locked=1;connectable=0;" vertex="1" parent="1">
          <mxGeometry x="480" y="120" width="80" height="80" as="geometry" />
        </mxCell>
        <mxCell id="2W6tL230I7aWUZj01j9L-10" value="API" style="ellipse;whiteSpace=wrap;html=1;aspect=fixed;movable=0;resizable=0;rotatable=0;deletable=0;editable=0;locked=1;connectable=0;" vertex="1" parent="1">
          <mxGeometry x="385" y="360" width="80" height="80" as="geometry" />
        </mxCell>
        <mxCell id="2W6tL230I7aWUZj01j9L-14" value="" style="endArrow=none;dashed=1;html=1;dashPattern=1 3;strokeWidth=2;rounded=0;" edge="1" parent="1">
          <mxGeometry width="50" height="50" relative="1" as="geometry">
            <mxPoint x="760" y="781.6666666666666" as="sourcePoint" />
            <mxPoint x="760" as="targetPoint" />
          </mxGeometry>
        </mxCell>
        <mxCell id="2W6tL230I7aWUZj01j9L-29" value="6" style="edgeStyle=orthogonalEdgeStyle;rounded=0;orthogonalLoop=1;jettySize=auto;html=1;entryX=0;entryY=0.5;entryDx=0;entryDy=0;startArrow=classic;startFill=1;movable=0;resizable=0;rotatable=0;deletable=0;editable=0;locked=1;connectable=0;" edge="1" parent="1" source="2W6tL230I7aWUZj01j9L-15" target="2W6tL230I7aWUZj01j9L-28">
          <mxGeometry relative="1" as="geometry" />
        </mxCell>
        <mxCell id="2W6tL230I7aWUZj01j9L-15" value="Archiver" style="ellipse;whiteSpace=wrap;html=1;movable=0;resizable=0;rotatable=0;deletable=0;editable=0;locked=1;connectable=0;" vertex="1" parent="1">
          <mxGeometry x="550" y="320" width="80" height="80" as="geometry" />
        </mxCell>
        <mxCell id="2W6tL230I7aWUZj01j9L-23" style="edgeStyle=orthogonalEdgeStyle;rounded=0;orthogonalLoop=1;jettySize=auto;html=1;entryX=0;entryY=0.5;entryDx=0;entryDy=0;startArrow=classic;startFill=1;movable=0;resizable=0;rotatable=0;deletable=0;editable=0;locked=1;connectable=0;" edge="1" parent="1" source="2W6tL230I7aWUZj01j9L-17" target="2W6tL230I7aWUZj01j9L-22">
          <mxGeometry relative="1" as="geometry" />
        </mxCell>
        <mxCell id="2W6tL230I7aWUZj01j9L-27" value="4" style="edgeLabel;html=1;align=center;verticalAlign=middle;resizable=0;points=[];movable=0;rotatable=0;deletable=0;editable=0;locked=1;connectable=0;" vertex="1" connectable="0" parent="2W6tL230I7aWUZj01j9L-23">
          <mxGeometry x="0.2281" y="3" relative="1" as="geometry">
            <mxPoint as="offset" />
          </mxGeometry>
        </mxCell>
        <mxCell id="2W6tL230I7aWUZj01j9L-17" value="Data&lt;br&gt;Pump" style="ellipse;whiteSpace=wrap;html=1;aspect=fixed;movable=0;resizable=0;rotatable=0;deletable=0;editable=0;locked=1;connectable=0;" vertex="1" parent="1">
          <mxGeometry x="630" y="120" width="80" height="80" as="geometry" />
        </mxCell>
        <mxCell id="2W6tL230I7aWUZj01j9L-19" value="Hardware/sensors" style="text;html=1;align=center;verticalAlign=middle;resizable=0;points=[];autosize=1;strokeColor=none;fillColor=none;movable=0;rotatable=0;deletable=0;editable=0;locked=1;connectable=0;" vertex="1" parent="1">
          <mxGeometry x="785" y="28" width="120" height="30" as="geometry" />
        </mxCell>
        <mxCell id="2W6tL230I7aWUZj01j9L-20" value="Cloud&lt;br&gt;" style="text;html=1;align=center;verticalAlign=middle;resizable=0;points=[];autosize=1;strokeColor=none;fillColor=none;movable=0;rotatable=0;deletable=0;editable=0;locked=1;connectable=0;" vertex="1" parent="1">
          <mxGeometry x="495" y="28" width="50" height="30" as="geometry" />
        </mxCell>
        <mxCell id="2W6tL230I7aWUZj01j9L-22" value="CSV files" style="ellipse;whiteSpace=wrap;html=1;aspect=fixed;movable=0;resizable=0;rotatable=0;deletable=0;editable=0;locked=1;connectable=0;" vertex="1" parent="1">
          <mxGeometry x="805" y="120" width="80" height="80" as="geometry" />
        </mxCell>
        <mxCell id="2W6tL230I7aWUZj01j9L-25" style="edgeStyle=orthogonalEdgeStyle;rounded=0;orthogonalLoop=1;jettySize=auto;html=1;startArrow=classic;startFill=1;movable=0;resizable=0;rotatable=0;deletable=0;editable=0;locked=1;connectable=0;" edge="1" parent="1" source="2W6tL230I7aWUZj01j9L-24" target="2W6tL230I7aWUZj01j9L-22">
          <mxGeometry relative="1" as="geometry" />
        </mxCell>
        <mxCell id="2W6tL230I7aWUZj01j9L-26" value="3" style="edgeLabel;html=1;align=center;verticalAlign=middle;resizable=0;points=[];movable=0;rotatable=0;deletable=0;editable=0;locked=1;connectable=0;" vertex="1" connectable="0" parent="2W6tL230I7aWUZj01j9L-25">
          <mxGeometry x="-0.0606" y="-2" relative="1" as="geometry">
            <mxPoint as="offset" />
          </mxGeometry>
        </mxCell>
        <mxCell id="2W6tL230I7aWUZj01j9L-24" value="Sensors" style="ellipse;whiteSpace=wrap;html=1;aspect=fixed;movable=0;resizable=0;rotatable=0;deletable=0;editable=0;locked=1;connectable=0;" vertex="1" parent="1">
          <mxGeometry x="940" y="120" width="80" height="80" as="geometry" />
        </mxCell>
        <mxCell id="2W6tL230I7aWUZj01j9L-28" value="Database" style="ellipse;whiteSpace=wrap;html=1;aspect=fixed;movable=0;resizable=0;rotatable=0;deletable=0;editable=0;locked=1;connectable=0;" vertex="1" parent="1">
          <mxGeometry x="670" y="320" width="80" height="80" as="geometry" />
        </mxCell>
        <mxCell id="2W6tL230I7aWUZj01j9L-30" value="1) User access mobile app or web app&lt;br&gt;2) App accesses MQTT service&lt;br&gt;3) Sensor is constantly sending out data in the form of CSV of JSon files&lt;br&gt;4) Data pump periodically accesses sensor to look for new data&lt;br&gt;5) Data pushed to MQTT Service&lt;br&gt;6) Archiver is Subbed to the MQTT service and sends the data to the Database&lt;br&gt;7)On any new data it computes some values/rates and publishes along with the time series to the MQTT series" style="text;html=1;strokeColor=none;fillColor=none;align=left;verticalAlign=middle;whiteSpace=wrap;rounded=0;movable=0;resizable=0;rotatable=0;deletable=0;editable=0;locked=1;connectable=0;" vertex="1" parent="1">
          <mxGeometry x="10" y="420" width="300" height="210" as="geometry" />
        </mxCell>
      </root>
    </mxGraphModel>
  </diagram>
</mxfile>
